<svg width="43" height="51" xmlns="http://www.w3.org/2000/svg"><g stroke-width="2" fill="none" fill-rule="evenodd"><path d="M36.259 14.83C36.329 5.484 30.25 1 21.447 1 12.644 1 6.565 5.484 6.637 14.83h29.622z" stroke="#323232"/><path d="M39.122 32.442l-10.666 2.6a6.181 6.181 0 01-3.193-.889l-1.638-.988a4.212 4.212 0 00-4.355 0l-1.639.988a6.175 6.175 0 01-3.192.89l-10.667-2.6a3.188 3.188 0 01-2.426-3.102v-11.32A3.182 3.182 0 014.52 14.83h33.854a3.182 3.182 0 013.174 3.191v11.32a3.187 3.187 0 01-2.426 3.101z" stroke="#3F7FE7"/><path d="M35.2 36.106v1.064c0 2.773-1.196 4.21-3.27 6.036-1.487 1.311-3.258 2.645-4.832 3.806a9.51 9.51 0 01-11.301 0c-1.574-1.16-3.345-2.495-4.833-3.806-2.074-1.826-3.27-3.263-3.27-6.036v-1.064m3.174 7.447V51m21.159-7.447V51" stroke="#323232"/><path d="M18.274 18.021h6.347m-20.101 0v9.575m33.855-9.575v9.575" stroke="#3F7FE7"/></g></svg>