<svg width="32" height="32" fill="none" xmlns="http://www.w3.org/2000/svg"><path clip-rule="evenodd" d="M31 16c0 8.285-6.715 15-15 15S1 24.285 1 16 7.715 1 16 1s15 6.715 15 15z" stroke="#1ADADA" stroke-width="2"/><path d="M21.625 24.438v-2.813c0-2.5-3.096-3.75-5.625-3.75-2.528 0-5.625 1.25-5.625 3.75v2.813" stroke="#1ADADA" stroke-width="2"/><path clip-rule="evenodd" d="M16 17.875c2.255 0 3.75-1.62 3.75-3.616v-1.206c0-1.996-1.495-3.616-3.75-3.616s-3.75 1.62-3.75 3.616v1.206c0 1.997 1.495 3.616 3.75 3.616z" stroke="#1ADADA" stroke-width="2"/></svg>