<svg width="52" height="50" fill="none" xmlns="http://www.w3.org/2000/svg"><g clip-path="url(#clip0)" stroke="#fff"><path d="M20.652 11.957H1.087v8.695h19.565v-8.696zm0 8.695v8.696H1.087v-8.696m19.565 8.696v8.696H1.087v-8.696m36.956-1.088a3.261 3.261 0 100-6.521 3.261 3.261 0 000 6.522z"/><path d="M50.87 22.065l-1.304-3.587-3.37 1.087a9.592 9.592 0 00-2.283-2.391l1.196-3.37-3.478-1.521L40 15.435c-1.088-.218-2.174-.218-3.261-.109l-1.522-3.152-3.587 1.413.978 3.37a9.592 9.592 0 00-2.391 2.282l-3.37-1.195-1.521 3.478 3.152 1.63c-.218 1.087-.218 2.174-.11 3.261l-3.151 1.522 1.413 3.587 3.37-.978a9.596 9.596 0 002.282 2.39l-1.196 3.37 3.479 1.522 1.63-3.152c1.087.217 2.174.217 3.26.109l1.523 3.152 3.587-1.413-1.087-3.478a9.593 9.593 0 002.39-2.283l3.37 1.195 1.522-3.478-3.152-1.63c.218-1.087.218-2.174.109-3.261l3.152-1.522zm-33.478-5.761H14.13M17.392 25H14.13m3.262 8.696H14.13m1.63-24.892c1.631-4.456 6.088-7.717 11.305-7.717 4.891 0 9.13 2.609 10.978 6.63"/><path d="M39.021 3.26l-.978 4.349-4.348-.544m4.349 34.239c-1.63 4.457-5.652 7.609-10.87 7.609-4.891 0-9.021-2.5-10.87-6.522"/><path d="M15.218 46.63l1.087-4.239 4.239.435"/></g><defs><clipPath id="clip0"><path fill="#fff" d="M0 0h51.956v50H0z"/></clipPath></defs></svg>