<svg xmlns="http://www.w3.org/2000/svg" width="32" height="32"><defs><linearGradient id="a" x1="100%" x2="0%" y1="0%" y2="50%"><stop offset="0%" stop-color="#73CDF7"/><stop offset="100%" stop-color="#9960C6"/></linearGradient><linearGradient id="b" x1="64.876%" x2="35.124%" y1="0%" y2="50%"><stop offset="0%" stop-color="#73CDF7"/><stop offset="100%" stop-color="#9960C6"/></linearGradient><linearGradient id="c" x1="53.125%" x2="46.875%" y1="0%" y2="50%"><stop offset="0%" stop-color="#73CDF7"/><stop offset="100%" stop-color="#9960C6"/></linearGradient><linearGradient id="d" x1="100%" x2="0%" y1="46.875%" y2="50%"><stop offset="0%" stop-color="#73CDF7"/><stop offset="100%" stop-color="#9960C6"/></linearGradient></defs><g fill="none" fill-rule="evenodd" stroke-width="2"><path stroke="url(#a)" d="M30 15c0 8.284-6.716 15-15 15-8.284 0-15-6.716-15-15C0 6.716 6.716 0 15 0c8.284 0 15 6.716 15 15z" transform="translate(1 1)"/><path stroke="url(#b)" d="M15 10v5.077L21 21" transform="translate(1 1)"/><path stroke="url(#c)" d="M14.5 2v4m0 18v4" transform="translate(1 1)"/><path stroke="url(#d)" d="M2 15.5h4m18 0h4" transform="translate(1 1)"/></g></svg>