<svg width="47" height="50" fill="none" xmlns="http://www.w3.org/2000/svg"><path d="M25.206 7.593c0-2.197.22-6.593-5.494-6.593-4.506 0-8.681 4.835-8.791 7.692-3.407.44-6.704 3.847-6.264 8.022C1.36 18.253-.948 26.824 3.338 30.89c-.77 3.407 1.539 11.429 8.681 10.77 1.759 9.23 13.187 9.01 13.187 2.197v-5.494m-6.593-23.077c-3.956 0-7.692-.66-7.692-6.594" stroke="#fff" stroke-linejoin="round"/><path d="M11.25 22.868c1.868 1.209 4.945.77 6.703-.989 1.21-1.319 2.528-3.407 3.956-3.187h17.583m-19.78 19.89c.77-1.868 2.747-2.417 5.494-2.417h14.286m-25.935-.769c-1.868-.33-3.516-1.978-3.516-3.517m1.979 9.781c0-4.176 2.417-9.671 8.571-9.671" stroke="#fff" stroke-linejoin="round"/><path d="M7.844 19.571c1.868 0 3.516 1.32 3.516 3.297 0 1.539-.989 2.967-2.307 3.517M31.8 9.791h-6.594c-2.967 0-5.934-.44-6.923-2.967m6.923 5.165v6.593m0 3.298v12.087m0-6.593H31.8m-4.396 17.582H31.8M42.789 21.88a3.297 3.297 0 100-6.594 3.297 3.297 0 000 6.593z" stroke="#fff" stroke-linejoin="round"/><path d="M35.096 13.088a3.297 3.297 0 100-6.594 3.297 3.297 0 000 6.594zm0 17.582a3.297 3.297 0 100-6.593 3.297 3.297 0 000 6.593zm0 17.583a3.297 3.297 0 100-6.594 3.297 3.297 0 000 6.594zm7.693-8.791a3.297 3.297 0 100-6.594 3.297 3.297 0 000 6.594z" stroke="#fff" stroke-linejoin="round"/></svg>