<svg xmlns="http://www.w3.org/2000/svg" width="32" height="32"><defs><linearGradient id="a" x1="100%" x2="0%" y1="0%" y2="50%"><stop offset="0%" stop-color="#73CDF7"/><stop offset="100%" stop-color="#9960C6"/></linearGradient><linearGradient id="b" x1="100%" x2="0%" y1="32.986%" y2="50%"><stop offset="0%" stop-color="#73CDF7"/><stop offset="100%" stop-color="#9960C6"/></linearGradient><linearGradient id="c" x1="89.506%" x2="10.494%" y1="0%" y2="50%"><stop offset="0%" stop-color="#73CDF7"/><stop offset="100%" stop-color="#9960C6"/></linearGradient></defs><g fill="none" fill-rule="evenodd" stroke-width="2"><path stroke="url(#a)" d="M30 15c0 8.285-6.715 15-15 15S0 23.285 0 15 6.715 0 15 0s15 6.715 15 15z" transform="translate(1 1)"/><path stroke="url(#b)" d="M20.625 23.438v-2.813c0-2.5-3.096-3.75-5.625-3.75-2.528 0-5.625 1.25-5.625 3.75v2.813" transform="translate(1 1)"/><path stroke="url(#c)" d="M15 16.875c2.255 0 3.75-1.62 3.75-3.616v-1.206c0-1.996-1.495-3.616-3.75-3.616s-3.75 1.62-3.75 3.616v1.206c0 1.997 1.495 3.616 3.75 3.616z" transform="translate(1 1)"/></g></svg>