<svg width="104" height="104" fill="none" xmlns="http://www.w3.org/2000/svg"><g stroke="#fff" stroke-linejoin="round"><path d="M57.814 15.954V4.326H39.209v10.52a36.976 36.976 0 00-9.57 3.963L22.2 11.37 9.044 24.527l7.44 7.44a36.976 36.976 0 00-3.963 9.569H2V60.14h10.52a36.976 36.976 0 003.964 9.57l-7.44 7.439L22.2 90.305l7.44-7.44a36.976 36.976 0 009.57 3.963v10.52h18.604V85.722m4.651-60.466h2.325l11.628-11.628"/><path d="M76.418 90.372L62.465 76.42H48.51c-14.128 0-25.581-11.454-25.581-25.582S34.383 25.256 48.51 25.256"/><path d="M50.836 62.465h-2.325c-6.421 0-11.628-5.207-11.628-11.628 0-6.42 5.207-11.628 11.628-11.628h18.604l9.303-9.302h11.628m.001 44.186h-9.302L67.117 62.465H64.79"/><path clip-rule="evenodd" d="M88.047 8.977a6.976 6.976 0 01-6.977 6.976 6.976 6.976 0 01-6.976-6.976A6.976 6.976 0 0181.07 2a6.976 6.976 0 016.976 6.977zM102 29.907a6.976 6.976 0 11-13.953 0 6.976 6.976 0 1113.953 0zm0 20.93a6.976 6.976 0 11-13.953 0 6.976 6.976 0 1113.953 0zm0 23.256a6.976 6.976 0 11-13.953 0 6.976 6.976 0 1113.953 0zm-13.953 20.93a6.976 6.976 0 11-13.953 0 6.976 6.976 0 016.977-6.977 6.976 6.976 0 016.976 6.977z"/><path d="M64.791 50.837h20.93m-39.536 0h4.652m4.651 0h4.651m-4.651 11.628h4.651m-6.977-37.209h4.651"/></g></svg>