<svg xmlns="http://www.w3.org/2000/svg" xmlns:xlink="http://www.w3.org/1999/xlink" width="18" height="18"><defs><path id="a" d="M0 0h18v18H0z"/></defs><g fill="none" fill-rule="evenodd"><mask id="b" fill="#fff"><use xlink:href="#a"/></mask><path fill="#0081BD" d="M15.342 10.024c0-2.626-1.632-3.522-3.142-3.522-1.396 0-2.31.904-2.572 1.433h-.034v-1.19H6.99v8.596h2.706v-4.66c0-1.244.788-1.848 1.59-1.848.76 0 1.349.427 1.349 1.812v4.696h2.706v-5.317zm-9.77-6.03c0-.898-.698-1.555-1.56-1.555-.861 0-1.56.657-1.56 1.554s.699 1.553 1.56 1.553c.862 0 1.56-.656 1.56-1.553zM2.66 15.333h2.706V6.737H2.659v8.597zM18 1.328v15.343a1.33 1.33 0 01-1.33 1.33H1.33A1.329 1.329 0 010 16.671V1.328A1.33 1.33 0 011.33 0h15.343C17.406 0 18 .595 18 1.328z" mask="url(#b)"/></g></svg>