<svg width="84" height="12" fill="none" xmlns="http://www.w3.org/2000/svg"><path d="M6.412 9.883a.97.97 0 01.715.284c.199.177.299.41.299.7 0 .277-.1.51-.3.7a1 1 0 01-.714.266H1.013a1.02 1.02 0 01-.73-.283A1.03 1.03 0 010 10.817V1.183C0 .894.1.656.299.467c.2-.2.454-.3.764-.3.277 0 .515.1.714.3.2.189.3.427.3.716v8.7h4.335zM19.864 6c0 1.1-.244 2.111-.731 3.033a5.604 5.604 0 01-2.027 2.167c-.853.533-1.816.8-2.89.8s-2.043-.267-2.907-.8a5.646 5.646 0 01-2.01-2.167C8.822 8.111 8.584 7.1 8.584 6c0-1.1.238-2.106.715-3.017A5.615 5.615 0 0111.309.8c.864-.533 1.833-.8 2.907-.8s2.037.267 2.89.8a5.574 5.574 0 012.027 2.183c.487.911.73 1.917.73 3.017zm-2.16 0c0-.744-.15-1.417-.448-2.017a3.616 3.616 0 00-1.246-1.45A3.154 3.154 0 0014.216 2a3.18 3.18 0 00-1.81.533c-.521.345-.931.823-1.23 1.434A4.711 4.711 0 0010.744 6c0 .744.144 1.422.432 2.033a3.665 3.665 0 001.23 1.45 3.256 3.256 0 001.81.517 3.16 3.16 0 001.794-.533 3.641 3.641 0 001.246-1.434A4.564 4.564 0 0017.704 6zm12.639-.467c.287 0 .526.1.714.3a.973.973 0 01.282.717v3.533c0 .39-.171.69-.515.9A6.611 6.611 0 0127.253 12a6.007 6.007 0 01-3.04-.8 6.13 6.13 0 01-2.21-2.183A5.842 5.842 0 0121.19 6a5.76 5.76 0 01.814-3 5.96 5.96 0 012.21-2.183A5.912 5.912 0 0127.253 0c1.096 0 2.048.222 2.857.667a.86.86 0 01.365.35c.089.144.133.3.133.466 0 .278-.094.523-.282.734a.85.85 0 01-.665.3c-.166 0-.349-.045-.548-.134A4.689 4.689 0 0027.253 2a3.68 3.68 0 00-1.96.55A3.98 3.98 0 0023.862 4a4.015 4.015 0 00-.514 2c0 .722.171 1.389.515 2 .354.611.83 1.1 1.428 1.467a3.766 3.766 0 001.96.533c.31 0 .643-.028.997-.083.355-.056.665-.128.93-.217V7.533h-1.56c-.289 0-.532-.094-.732-.283a.973.973 0 01-.282-.717c0-.289.094-.527.282-.716.2-.19.443-.284.731-.284h2.725zM44.035 6c0 1.1-.243 2.111-.73 3.033a5.604 5.604 0 01-2.027 2.167c-.853.533-1.816.8-2.89.8-1.075 0-2.044-.267-2.908-.8a5.646 5.646 0 01-2.01-2.167c-.476-.922-.714-1.933-.714-3.033 0-1.1.238-2.106.714-3.017A5.615 5.615 0 0135.48.8c.864-.533 1.833-.8 2.907-.8 1.075 0 2.038.267 2.89.8a5.574 5.574 0 012.028 2.183c.487.911.73 1.917.73 3.017zm-2.16 0c0-.744-.149-1.417-.448-2.017a3.616 3.616 0 00-1.245-1.45A3.154 3.154 0 0038.386 2c-.675 0-1.279.178-1.81.533-.52.345-.93.823-1.23 1.434A4.711 4.711 0 0034.916 6c0 .744.144 1.422.431 2.033.3.611.71 1.095 1.23 1.45a3.257 3.257 0 001.81.517c.665 0 1.263-.178 1.794-.533a3.641 3.641 0 001.246-1.434A4.564 4.564 0 0041.876 6zM53.584.167c.299 0 .542.089.73.266.189.178.283.411.283.7 0 .29-.094.523-.282.7-.188.167-.432.25-.731.25h-2.608v8.734a.973.973 0 01-.316.733c-.21.189-.47.283-.78.283-.31 0-.565-.094-.765-.283a1 1 0 01-.299-.733V2.083h-2.608c-.299 0-.542-.089-.73-.266-.19-.178-.283-.411-.283-.7a.9.9 0 01.282-.684c.2-.177.443-.266.731-.266h7.376zm11.325.983c0 .222-.061.428-.183.617L61.254 6.75v4.067c0 .289-.094.533-.282.733a.927.927 0 01-.681.283 1 1 0 01-.714-.283 1.03 1.03 0 01-.283-.733v-4.3l-3.455-4.6c-.2-.267-.3-.528-.3-.784a.9.9 0 01.333-.716c.233-.2.476-.3.73-.3.311 0 .582.155.815.466l2.924 4.05L63.08.617c.233-.334.51-.5.831-.5.266 0 .498.1.698.3a1 1 0 01.299.733zM71.2.167c.565 0 1.102.172 1.611.516.51.334.92.79 1.23 1.367.31.567.465 1.189.465 1.867 0 .666-.155 1.289-.466 1.866a3.81 3.81 0 01-1.229 1.384c-.51.333-1.046.5-1.611.5h-2.89v3.15c0 .3-.09.544-.266.733-.178.189-.41.283-.698.283a.892.892 0 01-.681-.283 1.066 1.066 0 01-.266-.733V1.183A.993.993 0 0167.412.166H71.2zm0 5.6c.21 0 .415-.09.614-.267.21-.178.377-.406.499-.683.133-.29.2-.59.2-.9 0-.311-.067-.606-.2-.884a1.686 1.686 0 00-.499-.683c-.199-.178-.404-.267-.614-.267h-2.89v3.684h2.89zm11.787 4.15c.288 0 .526.1.714.3a.89.89 0 01.299.666c0 .278-.1.506-.299.684a1 1 0 01-.714.266h-5.565c-.288 0-.532-.094-.731-.283a1.03 1.03 0 01-.283-.733V1.183a.97.97 0 01.283-.716c.2-.2.443-.3.73-.3h5.566c.288 0 .526.094.714.283.2.178.299.411.299.7a.898.898 0 01-.282.683c-.189.167-.432.25-.731.25h-4.502v2.834h3.754c.288 0 .526.094.715.283a.894.894 0 01.299.7.898.898 0 01-.283.683c-.188.167-.432.25-.73.25h-3.755v3.084h4.502z" fill="#000"/><path d="M53.584.167c.299 0 .542.089.73.266.189.178.283.411.283.7 0 .29-.094.523-.282.7-.188.167-.432.25-.731.25h-2.608v8.734a.973.973 0 01-.316.733c-.21.189-.47.283-.78.283-.31 0-.565-.094-.765-.283a1 1 0 01-.299-.733V2.083h-2.608c-.299 0-.542-.089-.73-.266-.189-.178-.283-.411-.283-.7a.9.9 0 01.282-.684c.2-.177.443-.266.731-.266h7.376zm11.325.983c0 .222-.061.428-.183.617L61.254 6.75v4.067c0 .289-.094.533-.282.733a.927.927 0 01-.681.283 1 1 0 01-.714-.283 1.03 1.03 0 01-.283-.733v-4.3l-3.455-4.6c-.2-.267-.3-.528-.3-.784a.9.9 0 01.333-.716c.233-.2.476-.3.73-.3.311 0 .582.155.815.466l2.924 4.05L63.08.617c.233-.334.51-.5.831-.5.266 0 .498.1.698.3a1 1 0 01.299.733zM71.2.167c.565 0 1.102.172 1.611.516.51.334.92.79 1.23 1.367.31.567.465 1.189.465 1.867 0 .666-.155 1.289-.466 1.866a3.81 3.81 0 01-1.229 1.384c-.51.333-1.046.5-1.611.5h-2.89v3.15c0 .3-.09.544-.266.733-.178.189-.41.283-.698.283a.892.892 0 01-.681-.283 1.066 1.066 0 01-.266-.733V1.183A.993.993 0 0167.412.166H71.2zm0 5.6c.21 0 .415-.09.614-.267a1.85 1.85 0 00.499-.683c.133-.29.2-.59.2-.9 0-.311-.067-.606-.2-.884a1.685 1.685 0 00-.499-.683c-.199-.178-.404-.267-.614-.267h-2.89v3.684h2.89zm11.787 4.15c.288 0 .526.1.714.3a.89.89 0 01.299.666c0 .278-.1.506-.299.684a1 1 0 01-.714.266h-5.565c-.288 0-.532-.094-.731-.283a1.03 1.03 0 01-.283-.733V1.183a.97.97 0 01.283-.716c.2-.2.443-.3.73-.3h5.566c.288 0 .526.094.714.283.2.178.299.411.299.7a.898.898 0 01-.282.683c-.189.167-.432.25-.731.25h-4.502v2.834h3.754c.288 0 .526.094.715.283a.894.894 0 01.299.7.898.898 0 01-.283.683c-.188.167-.432.25-.73.25h-3.755v3.084h4.502z" fill="#48DAA2"/></svg>