<svg width="124" height="112" fill="none" xmlns="http://www.w3.org/2000/svg"><path d="M8.303 36.524C2.963 45.725.293 50.325.134 55.37c-.013.42-.013.841 0 1.262.16 5.044 2.83 9.644 8.169 18.845l9.982 17.2c5.3 9.132 7.95 13.698 12.213 16.334.356.22.718.429 1.087.626C36.005 112 41.285 112 51.843 112h20.314c10.559 0 15.838 0 20.258-2.364.369-.197.731-.406 1.087-.626 4.263-2.636 6.913-7.202 12.213-16.334l9.982-17.2c5.34-9.201 8.01-13.801 8.169-18.845.013-.42.013-.841 0-1.262-.159-5.044-2.829-9.644-8.169-18.845l-9.982-17.2c-5.3-9.132-7.95-13.698-12.213-16.334-.356-.22-.718-.429-1.087-.626C87.995 0 82.716 0 72.157 0H51.843C41.284 0 36.005 0 31.585 2.364c-.369.197-.731.406-1.087.626-4.263 2.636-6.913 7.202-12.213 16.334l-9.982 17.2z" fill="url(#paint0_linear)" fill-opacity=".7"/><defs><linearGradient id="paint0_linear" x1="138" y1="129.231" x2="73.12" y2="-13.394" gradientUnits="userSpaceOnUse"><stop stop-color="#00E6FF"/><stop offset="1" stop-color="#2094FF"/></linearGradient></defs></svg>