<svg width="212" height="250" fill="none" xmlns="http://www.w3.org/2000/svg"><path d="M200.588 166.948c-6.676 18.212-16.773 34.046-30.013 47.06-15.071 14.813-34.806 26.583-58.657 34.979-.783.275-1.599.5-2.42.666a18.183 18.183 0 01-3.28.347h-.214c-1.166 0-2.337-.118-3.498-.347a18.792 18.792 0 01-2.405-.66c-23.88-8.383-43.639-20.147-58.725-34.96-13.246-13.014-23.341-28.839-30.008-47.05C-.754 133.871-.064 97.395.491 68.083l.01-.45c.111-2.42.183-4.963.223-7.77.203-13.785 11.091-25.19 24.789-25.958 28.558-1.604 50.65-10.979 69.526-29.497l.165-.153c3.134-2.893 7.084-4.312 11.014-4.253 3.79.05 7.565 1.467 10.587 4.253l.161.153c18.881 18.518 40.973 27.893 69.531 29.497 13.697.769 24.586 12.173 24.789 25.957.039 2.827.111 5.366.223 7.77l.006.191c.553 29.368 1.239 65.916-10.927 99.125z" fill="url(#paint0_linear)"/><path d="M167.903 125c0 34.281-27.654 62.185-61.685 62.307H106c-34.131 0-61.905-27.952-61.905-62.307 0-34.353 27.774-62.306 61.905-62.306h.218c34.031.123 61.685 28.027 61.685 62.306z" fill="url(#paint1_linear)"/><g filter="url(#filter0_d)"><path d="M134.097 116.028l-27.879 28.065-6.024 6.063a7.247 7.247 0 01-5.155 2.148 7.25 7.25 0 01-5.156-2.148L76.93 137.114c-2.846-2.865-2.846-7.506 0-10.373a7.254 7.254 0 0110.305 0l7.804 7.855 28.753-28.94a7.248 7.248 0 0110.305 0c2.847 2.865 2.847 7.511 0 10.372z" fill="url(#paint2_linear)"/></g><defs><linearGradient id="paint0_linear" x1="-43.969" y1="196.621" x2="153.202" y2="277.001" gradientUnits="userSpaceOnUse"><stop stop-color="#50E3AA"/><stop offset="1" stop-color="#39BE8A"/></linearGradient><linearGradient id="paint1_linear" x1="18.217" y1="160.701" x2="127.713" y2="213.118" gradientUnits="userSpaceOnUse"><stop stop-color="#39BE8A"/><stop offset="1" stop-color="#50E3AA"/></linearGradient><linearGradient id="paint2_linear" x1="61.954" y1="141.885" x2="110.775" y2="171.501" gradientUnits="userSpaceOnUse"><stop stop-color="#50E3AA"/><stop offset="1" stop-color="#40CA94"/></linearGradient><filter id="filter0_d" x="71.796" y="99.506" width="69.437" height="56.798" filterUnits="userSpaceOnUse" color-interpolation-filters="sRGB"><feFlood flood-opacity="0" result="BackgroundImageFix"/><feColorMatrix in="SourceAlpha" values="0 0 0 0 0 0 0 0 0 0 0 0 0 0 0 0 0 0 127 0"/><feOffset dx="1"/><feGaussianBlur stdDeviation="2"/><feColorMatrix values="0 0 0 0 0 0 0 0 0 0 0 0 0 0 0 0 0 0 0.219761 0"/><feBlend in2="BackgroundImageFix" result="effect1_dropShadow"/><feBlend in="SourceGraphic" in2="effect1_dropShadow" result="shape"/></filter></defs></svg>