<svg xmlns="http://www.w3.org/2000/svg" width="23" height="18"><path fill="#5E7283" fill-rule="evenodd" d="M23 2.13a9.71 9.71 0 01-2.71.716A4.593 4.593 0 0022.365.332a9.69 9.69 0 01-2.997 1.103A4.797 4.797 0 0015.924 0c-2.606 0-4.719 2.034-4.719 4.544 0 .356.042.703.122 1.036-3.921-.19-7.399-2-9.726-4.748a4.394 4.394 0 00-.638 2.285c0 1.576.832 2.967 2.098 3.781A4.832 4.832 0 01.924 6.33v.057c0 2.202 1.626 4.039 3.785 4.456a4.894 4.894 0 01-2.131.078c.6 1.805 2.343 3.12 4.408 3.156a9.697 9.697 0 01-5.86 1.945c-.38 0-.757-.021-1.126-.064A13.734 13.734 0 007.233 18c8.68 0 13.426-6.923 13.426-12.93 0-.196-.005-.392-.014-.587A9.392 9.392 0 0023 2.13" opacity=".595"/></svg>