<svg width="32" height="32" viewBox="0 0 32 32" fill="none" xmlns="http://www.w3.org/2000/svg">
<path fill-rule="evenodd" clip-rule="evenodd" d="M31 16C31 24.2847 24.2847 31 16 31C7.71531 31 1 24.2847 1 16C1 7.71531 7.71531 1 16 1C24.2847 1 31 7.71531 31 16Z" stroke="#1ADADA" stroke-width="2"/>
<path d="M21.625 24.4375V21.625C21.625 19.1247 18.5294 17.875 16 17.875C13.4716 17.875 10.375 19.1247 10.375 21.625V24.4375" stroke="#1ADADA" stroke-width="2"/>
<path fill-rule="evenodd" clip-rule="evenodd" d="M16 17.875C18.2547 17.875 19.75 16.2559 19.75 14.2591V13.0534C19.75 11.0566 18.2547 9.4375 16 9.4375C13.7453 9.4375 12.25 11.0566 12.25 13.0534V14.2591C12.25 16.2559 13.7453 17.875 16 17.875Z" stroke="#1ADADA" stroke-width="2"/>
</svg>
