<svg width="52" height="50" viewBox="0 0 52 50" fill="none" xmlns="http://www.w3.org/2000/svg">
<g clip-path="url(#clip0)">
<path d="M20.6521 11.9565H1.08691V20.6522H20.6521V11.9565Z" stroke="white"/>
<path d="M20.6521 20.6522V29.3478H1.08691V20.6522" stroke="white"/>
<path d="M20.6521 29.3478V38.0435H1.08691V29.3478" stroke="white"/>
<path d="M38.0431 28.2609C39.844 28.2609 41.304 26.8009 41.304 25C41.304 23.1991 39.844 21.7391 38.0431 21.7391C36.2422 21.7391 34.7822 23.1991 34.7822 25C34.7822 26.8009 36.2422 28.2609 38.0431 28.2609Z" stroke="white"/>
<path d="M50.8699 22.0652L49.5656 18.4782L46.196 19.5652C45.5439 18.5869 44.783 17.8261 43.9134 17.1739L45.1091 13.8043L41.6308 12.2826L40.0004 15.4348C38.9134 15.2174 37.8265 15.2174 36.7395 15.3261L35.2178 12.1739L31.6308 13.5869L32.6091 16.9565C31.6308 17.6087 30.8699 18.3695 30.2178 19.2391L26.8482 18.0435L25.3265 21.5217L28.4786 23.1522C28.2613 24.2391 28.2613 25.3261 28.3699 26.413L25.2178 27.9348L26.6308 31.5217L30.0004 30.5435C30.6526 31.5217 31.4134 32.2826 32.283 32.9348L31.0873 36.3043L34.5656 37.8261L36.196 34.6739C37.283 34.8913 38.3699 34.8913 39.4569 34.7826L40.9786 37.9348L44.5656 36.5217L43.4786 33.0435C44.4569 32.3913 45.2178 31.6304 45.8699 30.7608L49.2395 31.9565L50.7613 28.4782L47.6091 26.8478C47.8265 25.7608 47.8265 24.6739 47.7178 23.5869L50.8699 22.0652Z" stroke="white"/>
<path d="M17.3917 16.3043H14.1309" stroke="white"/>
<path d="M17.3917 25H14.1309" stroke="white"/>
<path d="M17.3917 33.6957H14.1309" stroke="white"/>
<path d="M15.7607 8.80437C17.3912 4.34785 21.8477 1.08698 27.0651 1.08698C31.9564 1.08698 36.1955 3.69567 38.0434 7.71741" stroke="white"/>
<path d="M39.0214 3.26086L38.0431 7.60869L33.6953 7.06521" stroke="white"/>
<path d="M38.0438 41.3043C36.4134 45.7608 32.3916 48.913 27.1743 48.913C22.2829 48.913 18.1525 46.413 16.3047 42.3913" stroke="white"/>
<path d="M15.2178 46.6304L16.3047 42.3913L20.5439 42.8261" stroke="white"/>
</g>
<defs>
<clipPath id="clip0">
<rect width="51.9565" height="50" fill="white"/>
</clipPath>
</defs>
</svg>
