<svg width="47" height="50" viewBox="0 0 47 50" fill="none" xmlns="http://www.w3.org/2000/svg">
<path d="M25.2063 7.59341C25.2063 5.3956 25.4261 1 19.7118 1C15.2063 1 11.0305 5.83517 10.9206 8.69231C7.51399 9.13187 4.21729 12.5385 4.65685 16.7143C1.36014 18.2527 -0.947549 26.8242 3.33817 30.8901C2.56893 34.2967 4.87663 42.3187 12.0195 41.6593C13.7777 50.8901 25.2063 50.6703 25.2063 43.8571V38.3626" stroke="white" stroke-linejoin="round"/>
<path d="M18.6132 15.2857C14.6572 15.2857 10.9209 14.6263 10.9209 8.69226" stroke="white" stroke-linejoin="round"/>
<path d="M11.25 22.8681C13.1181 24.0769 16.1951 23.6374 17.9533 21.8791C19.1621 20.5604 20.4808 18.4725 21.9093 18.6923H25.206H39.4918" stroke="white" stroke-linejoin="round"/>
<path d="M19.7119 38.5824C20.4811 36.7142 22.4592 36.1648 25.2064 36.1648H39.4921" stroke="white" stroke-linejoin="round"/>
<path d="M13.5575 35.3956C11.6894 35.066 10.041 33.4176 10.041 31.8792" stroke="white" stroke-linejoin="round"/>
<path d="M12.0195 41.6593C12.0195 37.4835 14.4371 31.989 20.591 31.989" stroke="white" stroke-linejoin="round"/>
<path d="M7.84375 19.5714C9.71188 19.5714 11.3602 20.8901 11.3602 22.8681C11.3602 24.4066 10.3712 25.8351 9.05254 26.3846" stroke="white" stroke-linejoin="round"/>
<path d="M31.7997 9.79125H25.2063C22.2392 9.79125 19.2722 9.35169 18.2832 6.82422" stroke="white" stroke-linejoin="round"/>
<path d="M25.2061 11.989V18.5824" stroke="white" stroke-linejoin="round"/>
<path d="M25.2061 21.8792V33.9671" stroke="white" stroke-linejoin="round"/>
<path d="M25.2061 27.3737H31.7995" stroke="white" stroke-linejoin="round"/>
<path d="M27.4043 44.9561H31.7999" stroke="white" stroke-linejoin="round"/>
<path d="M42.7889 21.8792C44.6096 21.8792 46.0856 20.4032 46.0856 18.5825C46.0856 16.7618 44.6096 15.2858 42.7889 15.2858C40.9682 15.2858 39.4922 16.7618 39.4922 18.5825C39.4922 20.4032 40.9682 21.8792 42.7889 21.8792Z" stroke="white" stroke-linejoin="round"/>
<path d="M35.0965 13.0879C36.9172 13.0879 38.3932 11.6119 38.3932 9.79121C38.3932 7.97049 36.9172 6.49451 35.0965 6.49451C33.2758 6.49451 31.7998 7.97049 31.7998 9.79121C31.7998 11.6119 33.2758 13.0879 35.0965 13.0879Z" stroke="white" stroke-linejoin="round"/>
<path d="M35.0965 30.6703C36.9172 30.6703 38.3932 29.1943 38.3932 27.3736C38.3932 25.5529 36.9172 24.0769 35.0965 24.0769C33.2758 24.0769 31.7998 25.5529 31.7998 27.3736C31.7998 29.1943 33.2758 30.6703 35.0965 30.6703Z" stroke="white" stroke-linejoin="round"/>
<path d="M35.0965 48.2527C36.9172 48.2527 38.3932 46.7767 38.3932 44.956C38.3932 43.1353 36.9172 41.6593 35.0965 41.6593C33.2758 41.6593 31.7998 43.1353 31.7998 44.956C31.7998 46.7767 33.2758 48.2527 35.0965 48.2527Z" stroke="white" stroke-linejoin="round"/>
<path d="M42.7889 39.4616C44.6096 39.4616 46.0856 37.9856 46.0856 36.1649C46.0856 34.3441 44.6096 32.8682 42.7889 32.8682C40.9682 32.8682 39.4922 34.3441 39.4922 36.1649C39.4922 37.9856 40.9682 39.4616 42.7889 39.4616Z" stroke="white" stroke-linejoin="round"/>
</svg>
