<svg width="17" height="18" viewBox="0 0 17 18" fill="none" xmlns="http://www.w3.org/2000/svg">
<path fill-rule="evenodd" clip-rule="evenodd" d="M13.32 13.82L16.64 17.14L16.64 3.5C16.64 1.84315 15.2969 0.5 13.64 0.5L3.00002 0.5C1.34316 0.5 1.52588e-05 1.84314 1.52588e-05 3.5L1.52588e-05 10.82C1.52588e-05 12.4769 1.34316 13.82 3.00001 13.82L13.32 13.82ZM13.32 5.5L3.32001 5.5L3.32001 3.82L13.32 3.82L13.32 5.5ZM3.32001 8L13.32 8V6.32L3.32001 6.32V8ZM13.32 10.5L3.32001 10.5V8.82L13.32 8.82L13.32 10.5Z" fill="white"/>
</svg>
