<svg width="104" height="104" viewBox="0 0 104 104" fill="none" xmlns="http://www.w3.org/2000/svg">
<g id="internet-of-things">
<path id="Stroke 1" d="M57.814 15.9536V4.32568H39.2093V14.8466C35.8046 15.7257 32.593 17.0652 29.6395 18.8094L22.2 11.3699L9.04419 24.5257L16.4837 31.9652C14.7395 34.9187 13.4 38.1303 12.5209 41.535H2V60.1396H12.5209C13.4 63.5443 14.7395 66.7559 16.4837 69.7094L9.04419 77.1489L22.2 90.3048L29.6395 82.8652C32.593 84.6094 35.8046 85.9489 39.2093 86.828V97.3489H57.814V85.721" stroke="white" stroke-linejoin="round"/>
<path id="Stroke 3" d="M62.4648 25.2558H64.7904L76.4183 13.6279" stroke="white" stroke-linejoin="round"/>
<path id="Stroke 5" d="M76.4181 90.3721L62.4646 76.4187H48.5111C34.3832 76.4187 22.9297 64.9652 22.9297 50.8373C22.9297 36.7093 34.3832 25.2559 48.5111 25.2559" stroke="white" stroke-linejoin="round"/>
<path id="Stroke 7" d="M50.8363 62.4651H48.5107C42.0898 62.4651 36.8828 57.2581 36.8828 50.8372C36.8828 44.4163 42.0898 39.2093 48.5107 39.2093H67.1154L76.4177 29.907H88.0456" stroke="white" stroke-linejoin="round"/>
<path id="Stroke 9" d="M88.0468 74.093H78.7445L67.1166 62.4651H64.791" stroke="white" stroke-linejoin="round"/>
<path id="Stroke 11" fill-rule="evenodd" clip-rule="evenodd" d="M88.0472 8.97674C88.0472 12.8302 84.924 15.9535 81.0705 15.9535C77.217 15.9535 74.0938 12.8302 74.0938 8.97674C74.0938 5.12326 77.217 2 81.0705 2C84.924 2 88.0472 5.12326 88.0472 8.97674Z" stroke="white" stroke-linejoin="round"/>
<path id="Stroke 13" fill-rule="evenodd" clip-rule="evenodd" d="M102 29.9069C102 33.7604 98.8771 36.8837 95.0236 36.8837C91.1701 36.8837 88.0469 33.7604 88.0469 29.9069C88.0469 26.0534 91.1701 22.9302 95.0236 22.9302C98.8771 22.9302 102 26.0534 102 29.9069Z" stroke="white" stroke-linejoin="round"/>
<path id="Stroke 15" fill-rule="evenodd" clip-rule="evenodd" d="M102 50.8371C102 54.6906 98.8771 57.8138 95.0236 57.8138C91.1701 57.8138 88.0469 54.6906 88.0469 50.8371C88.0469 46.9836 91.1701 43.8604 95.0236 43.8604C98.8771 43.8604 102 46.9836 102 50.8371Z" stroke="white" stroke-linejoin="round"/>
<path id="Stroke 17" fill-rule="evenodd" clip-rule="evenodd" d="M102 74.093C102 77.9464 98.8771 81.0697 95.0236 81.0697C91.1701 81.0697 88.0469 77.9464 88.0469 74.093C88.0469 70.2395 91.1701 67.1162 95.0236 67.1162C98.8771 67.1162 102 70.2395 102 74.093Z" stroke="white" stroke-linejoin="round"/>
<path id="Stroke 19" fill-rule="evenodd" clip-rule="evenodd" d="M88.0472 95.0231C88.0472 98.8766 84.924 102 81.0705 102C77.217 102 74.0938 98.8766 74.0938 95.0231C74.0938 91.1696 77.217 88.0464 81.0705 88.0464C84.924 88.0464 88.0472 91.1696 88.0472 95.0231Z" stroke="white" stroke-linejoin="round"/>
<path id="Stroke 21" d="M64.791 50.8372H85.7212" stroke="white" stroke-linejoin="round"/>
<path id="Stroke 23" d="M46.1855 50.8372H50.8367" stroke="white" stroke-linejoin="round"/>
<path id="Stroke 25" d="M55.4883 50.8372H60.1394" stroke="white" stroke-linejoin="round"/>
<path id="Stroke 27" d="M55.4883 62.4651H60.1394" stroke="white" stroke-linejoin="round"/>
<path id="Stroke 29" d="M53.1621 25.2559H57.8133" stroke="white" stroke-linejoin="round"/>
</g>
</svg>
