<svg width="84" height="12" viewBox="0 0 84 12" fill="none" xmlns="http://www.w3.org/2000/svg">
<path d="M6.4122 9.88333C6.70014 9.88333 6.93825 9.97778 7.12652 10.1667C7.32586 10.3444 7.42553 10.5778 7.42553 10.8667C7.42553 11.1444 7.32586 11.3778 7.12652 11.5667C6.93825 11.7444 6.70014 11.8333 6.4122 11.8333H1.01333C0.725387 11.8333 0.481746 11.7389 0.282403 11.55C0.0941343 11.35 0 11.1056 0 10.8167V1.18333C0 0.894444 0.0996716 0.655556 0.299015 0.466667C0.498358 0.266667 0.753074 0.166667 1.06316 0.166667C1.34003 0.166667 1.57813 0.266667 1.77748 0.466667C1.97682 0.655556 2.07649 0.894444 2.07649 1.18333V9.88333H6.4122Z" fill="black"/>
<path d="M19.8638 6C19.8638 7.1 19.6202 8.11111 19.1329 9.03333C18.6456 9.94444 17.9701 10.6667 17.1063 11.2C16.2535 11.7333 15.29 12 14.2158 12C13.1415 12 12.1725 11.7333 11.3087 11.2C10.456 10.6667 9.78594 9.94444 9.29865 9.03333C8.82245 8.11111 8.58434 7.1 8.58434 6C8.58434 4.9 8.82245 3.89444 9.29865 2.98333C9.78594 2.06111 10.456 1.33333 11.3087 0.8C12.1725 0.266667 13.1415 0 14.2158 0C15.29 0 16.2535 0.266667 17.1063 0.8C17.9701 1.33333 18.6456 2.06111 19.1329 2.98333C19.6202 3.89444 19.8638 4.9 19.8638 6ZM17.7043 6C17.7043 5.25556 17.5548 4.58333 17.2558 3.98333C16.9568 3.37222 16.5415 2.88889 16.0099 2.53333C15.4783 2.17778 14.8803 2 14.2158 2C13.5402 2 12.9367 2.17778 12.4051 2.53333C11.8846 2.87778 11.4748 3.35556 11.1758 3.96667C10.8879 4.57778 10.7439 5.25556 10.7439 6C10.7439 6.74444 10.8879 7.42222 11.1758 8.03333C11.4748 8.64444 11.8846 9.12778 12.4051 9.48333C12.9367 9.82778 13.5402 10 14.2158 10C14.8803 10 15.4783 9.82222 16.0099 9.46667C16.5415 9.11111 16.9568 8.63333 17.2558 8.03333C17.5548 7.42222 17.7043 6.74444 17.7043 6Z" fill="black"/>
<path d="M30.3425 5.53333C30.6304 5.53333 30.8685 5.63333 31.0568 5.83333C31.245 6.02222 31.3392 6.26111 31.3392 6.55V10.0833C31.3392 10.4722 31.1675 10.7722 30.8242 10.9833C29.7389 11.6611 28.5484 12 27.2526 12C26.1563 12 25.1429 11.7333 24.2127 11.2C23.2824 10.6556 22.5459 9.92778 22.0033 9.01667C21.4606 8.09445 21.1893 7.08889 21.1893 6C21.1893 4.91111 21.4606 3.91111 22.0033 3C22.5459 2.07778 23.2824 1.35 24.2127 0.816667C25.1429 0.272222 26.1563 0 27.2526 0C28.349 0 29.3014 0.222222 30.1099 0.666667C30.276 0.755555 30.3978 0.872222 30.4754 1.01667C30.5639 1.16111 30.6082 1.31667 30.6082 1.48333C30.6082 1.76111 30.5141 2.00556 30.3258 2.21667C30.1487 2.41667 29.9272 2.51667 29.6614 2.51667C29.4952 2.51667 29.3125 2.47222 29.1132 2.38333C28.5151 2.12778 27.895 2 27.2526 2C26.5439 2 25.8905 2.18333 25.2924 2.55C24.6944 2.90556 24.2182 3.38889 23.8638 4C23.5205 4.61111 23.3488 5.27778 23.3488 6C23.3488 6.72222 23.5205 7.38889 23.8638 8C24.2182 8.61111 24.6944 9.1 25.2924 9.46667C25.8905 9.82222 26.5439 10 27.2526 10C27.5627 10 27.895 9.97222 28.2494 9.91667C28.6037 9.86111 28.9138 9.78889 29.1796 9.7V7.53333H27.6181C27.3302 7.53333 27.0865 7.43889 26.8872 7.25C26.6989 7.06111 26.6048 6.82222 26.6048 6.53333C26.6048 6.24444 26.6989 6.00556 26.8872 5.81667C27.0865 5.62778 27.3302 5.53333 27.6181 5.53333H30.3425Z" fill="black"/>
<path d="M44.0355 6C44.0355 7.1 43.7918 8.11111 43.3046 9.03333C42.8173 9.94444 42.1417 10.6667 41.2779 11.2C40.4252 11.7333 39.4617 12 38.3874 12C37.3132 12 36.3442 11.7333 35.4803 11.2C34.6276 10.6667 33.9576 9.94444 33.4703 9.03333C32.9941 8.11111 32.756 7.1 32.756 6C32.756 4.9 32.9941 3.89444 33.4703 2.98333C33.9576 2.06111 34.6276 1.33333 35.4803 0.8C36.3442 0.266667 37.3132 0 38.3874 0C39.4617 0 40.4252 0.266667 41.2779 0.8C42.1417 1.33333 42.8173 2.06111 43.3046 2.98333C43.7918 3.89444 44.0355 4.9 44.0355 6ZM41.8759 6C41.8759 5.25556 41.7264 4.58333 41.4274 3.98333C41.1284 3.37222 40.7131 2.88889 40.1815 2.53333C39.6499 2.17778 39.0519 2 38.3874 2C37.7119 2 37.1083 2.17778 36.5767 2.53333C36.0562 2.87778 35.6465 3.35556 35.3474 3.96667C35.0595 4.57778 34.9155 5.25556 34.9155 6C34.9155 6.74444 35.0595 7.42222 35.3474 8.03333C35.6465 8.64444 36.0562 9.12778 36.5767 9.48333C37.1083 9.82778 37.7119 10 38.3874 10C39.0519 10 39.6499 9.82222 40.1815 9.46667C40.7131 9.11111 41.1284 8.63333 41.4274 8.03333C41.7264 7.42222 41.8759 6.74444 41.8759 6Z" fill="black"/>
<path d="M53.5838 0.166667C53.8829 0.166667 54.1265 0.255556 54.3148 0.433334C54.503 0.611111 54.5972 0.844444 54.5972 1.13333C54.5972 1.42222 54.503 1.65556 54.3148 1.83333C54.1265 2 53.8829 2.08333 53.5838 2.08333H50.9758V10.8167C50.9758 11.1056 50.8705 11.35 50.6601 11.55C50.4497 11.7389 50.1895 11.8333 49.8794 11.8333C49.5693 11.8333 49.3146 11.7389 49.1152 11.55C48.9159 11.35 48.8162 11.1056 48.8162 10.8167V2.08333H46.2081C45.9091 2.08333 45.6655 1.99444 45.4772 1.81667C45.2889 1.63889 45.1948 1.40556 45.1948 1.11667C45.1948 0.838889 45.2889 0.611111 45.4772 0.433334C45.6766 0.255556 45.9202 0.166667 46.2081 0.166667H53.5838Z" fill="black"/>
<path d="M64.9089 1.15C64.9089 1.37222 64.848 1.57778 64.7262 1.76667L61.2543 6.75V10.8167C61.2543 11.1056 61.1601 11.35 60.9719 11.55C60.7836 11.7389 60.5566 11.8333 60.2908 11.8333C60.0139 11.8333 59.7758 11.7389 59.5765 11.55C59.3882 11.35 59.2941 11.1056 59.2941 10.8167V6.51667L55.8388 1.91667C55.6394 1.65 55.5398 1.38889 55.5398 1.13333C55.5398 0.844444 55.6505 0.605555 55.872 0.416666C56.1046 0.216667 56.3482 0.116667 56.6029 0.116667C56.913 0.116667 57.1843 0.272223 57.4169 0.583334L60.3406 4.63333L63.0816 0.616667C63.3141 0.283334 63.591 0.116667 63.9122 0.116667C64.178 0.116667 64.4105 0.216667 64.6099 0.416666C64.8092 0.616666 64.9089 0.861111 64.9089 1.15Z" fill="black"/>
<path d="M71.1999 0.166667C71.7647 0.166667 72.3018 0.338889 72.8112 0.683333C73.3207 1.01667 73.7304 1.47222 74.0405 2.05C74.3506 2.61667 74.5056 3.23889 74.5056 3.91667C74.5056 4.58333 74.3506 5.20556 74.0405 5.78333C73.7304 6.36111 73.3207 6.82222 72.8112 7.16667C72.3018 7.5 71.7647 7.66667 71.1999 7.66667H68.3094V10.8167C68.3094 11.1167 68.2208 11.3611 68.0436 11.55C67.8664 11.7389 67.6338 11.8333 67.3459 11.8333C67.069 11.8333 66.842 11.7389 66.6648 11.55C66.4876 11.35 66.399 11.1056 66.399 10.8167V1.18333C66.399 0.894444 66.4932 0.655556 66.6814 0.466667C66.8808 0.266667 67.1244 0.166667 67.4124 0.166667H71.1999ZM71.1999 5.76667C71.4103 5.76667 71.6152 5.67778 71.8145 5.5C72.0249 5.32222 72.191 5.09444 72.3129 4.81667C72.4458 4.52778 72.5122 4.22778 72.5122 3.91667C72.5122 3.60556 72.4458 3.31111 72.3129 3.03333C72.191 2.74444 72.0249 2.51667 71.8145 2.35C71.6152 2.17222 71.4103 2.08333 71.1999 2.08333H68.3094V5.76667H71.1999Z" fill="black"/>
<path d="M82.9867 9.91667C83.2746 9.91667 83.5127 10.0167 83.701 10.2167C83.9003 10.4056 84 10.6278 84 10.8833C84 11.1611 83.9003 11.3889 83.701 11.5667C83.5127 11.7444 83.2746 11.8333 82.9867 11.8333H77.4217C77.1337 11.8333 76.8901 11.7389 76.6908 11.55C76.5025 11.35 76.4084 11.1056 76.4084 10.8167V1.18333C76.4084 0.894444 76.5025 0.655556 76.6908 0.466667C76.8901 0.266667 77.1337 0.166667 77.4217 0.166667H82.9867C83.2746 0.166667 83.5127 0.261111 83.701 0.45C83.9003 0.627778 84 0.861111 84 1.15C84 1.42778 83.9059 1.65556 83.7176 1.83333C83.5293 2 83.2857 2.08333 82.9867 2.08333H78.4848V4.91667H82.2391C82.5271 4.91667 82.7652 5.01111 82.9535 5.2C83.1528 5.37778 83.2525 5.61111 83.2525 5.9C83.2525 6.17778 83.1583 6.40555 82.9701 6.58333C82.7818 6.75 82.5382 6.83333 82.2391 6.83333H78.4848V9.91667H82.9867Z" fill="black"/>
<path d="M53.5838 0.166699C53.8829 0.166699 54.1265 0.255588 54.3148 0.433366C54.503 0.611143 54.5972 0.844476 54.5972 1.13337C54.5972 1.42225 54.503 1.65559 54.3148 1.83337C54.1265 2.00003 53.8829 2.08337 53.5838 2.08337H50.9758V10.8167C50.9758 11.1056 50.8706 11.35 50.6601 11.55C50.4497 11.7389 50.1895 11.8334 49.8794 11.8334C49.5693 11.8334 49.3146 11.7389 49.1152 11.55C48.9159 11.35 48.8162 11.1056 48.8162 10.8167V2.08337H46.2081C45.9091 2.08337 45.6655 1.99448 45.4772 1.8167C45.289 1.63892 45.1948 1.40559 45.1948 1.1167C45.1948 0.838921 45.289 0.611143 45.4772 0.433366C45.6766 0.255588 45.9202 0.166699 46.2081 0.166699H53.5838Z" fill="#48DAA2"/>
<path d="M64.9089 1.15003C64.9089 1.37225 64.848 1.57781 64.7262 1.7667L61.2543 6.75003V10.8167C61.2543 11.1056 61.1601 11.35 60.9719 11.55C60.7836 11.7389 60.5566 11.8334 60.2908 11.8334C60.0139 11.8334 59.7758 11.7389 59.5765 11.55C59.3882 11.35 59.2941 11.1056 59.2941 10.8167V6.5167L55.8388 1.9167C55.6394 1.65003 55.5398 1.38892 55.5398 1.13337C55.5398 0.844476 55.6505 0.605587 55.872 0.416698C56.1046 0.216699 56.3482 0.116699 56.6029 0.116699C56.913 0.116699 57.1843 0.272255 57.4169 0.583366L60.3406 4.63337L63.0816 0.616699C63.3141 0.283366 63.591 0.116699 63.9122 0.116699C64.178 0.116699 64.4105 0.216699 64.6099 0.416698C64.8092 0.616698 64.9089 0.861143 64.9089 1.15003Z" fill="#48DAA2"/>
<path d="M71.1999 0.166699C71.7647 0.166699 72.3018 0.338921 72.8112 0.683366C73.3207 1.0167 73.7304 1.47225 74.0405 2.05003C74.3506 2.6167 74.5057 3.23892 74.5057 3.9167C74.5057 4.58337 74.3506 5.20559 74.0405 5.78337C73.7304 6.36114 73.3207 6.82225 72.8112 7.1667C72.3018 7.50003 71.7647 7.6667 71.1999 7.6667H68.3094V10.8167C68.3094 11.1167 68.2208 11.3611 68.0436 11.55C67.8664 11.7389 67.6339 11.8334 67.3459 11.8334C67.069 11.8334 66.842 11.7389 66.6648 11.55C66.4876 11.35 66.399 11.1056 66.399 10.8167V1.18336C66.399 0.894477 66.4932 0.655588 66.6814 0.466699C66.8808 0.266699 67.1244 0.166699 67.4124 0.166699H71.1999ZM71.1999 5.7667C71.4103 5.7667 71.6152 5.67781 71.8145 5.50003C72.0249 5.32225 72.1911 5.09448 72.3129 4.8167C72.4458 4.52781 72.5122 4.22781 72.5122 3.9167C72.5122 3.60559 72.4458 3.31114 72.3129 3.03337C72.1911 2.74448 72.0249 2.5167 71.8145 2.35003C71.6152 2.17225 71.4103 2.08337 71.1999 2.08337H68.3094V5.7667H71.1999Z" fill="#48DAA2"/>
<path d="M82.9867 9.9167C83.2746 9.9167 83.5127 10.0167 83.701 10.2167C83.9003 10.4056 84 10.6278 84 10.8834C84 11.1611 83.9003 11.3889 83.701 11.5667C83.5127 11.7445 83.2746 11.8334 82.9867 11.8334H77.4217C77.1338 11.8334 76.8901 11.7389 76.6908 11.55C76.5025 11.35 76.4084 11.1056 76.4084 10.8167V1.18336C76.4084 0.894477 76.5025 0.655588 76.6908 0.466699C76.8901 0.266699 77.1338 0.166699 77.4217 0.166699H82.9867C83.2746 0.166699 83.5127 0.261143 83.701 0.450032C83.9003 0.62781 84 0.861143 84 1.15003C84 1.42781 83.9059 1.65559 83.7176 1.83337C83.5293 2.00003 83.2857 2.08337 82.9867 2.08337H78.4849V4.9167H82.2392C82.5271 4.9167 82.7652 5.01114 82.9535 5.20003C83.1528 5.37781 83.2525 5.61114 83.2525 5.90003C83.2525 6.17781 83.1583 6.40559 82.9701 6.58336C82.7818 6.75003 82.5382 6.83336 82.2392 6.83336H78.4849V9.9167H82.9867Z" fill="#48DAA2"/>
</svg>
