<svg width="124" height="112" viewBox="0 0 124 112" fill="none" xmlns="http://www.w3.org/2000/svg">
<path id="Polygon Copy 4" d="M8.30282 36.5244C2.96313 45.7251 0.293278 50.3254 0.134092 55.3691C0.12082 55.7896 0.12082 56.2104 0.134092 56.6309C0.293278 61.6746 2.96313 66.2749 8.30282 75.4756L18.285 92.6756C23.585 101.808 26.235 106.374 30.4982 109.01C30.8537 109.23 31.216 109.439 31.5846 109.636C36.0046 112 41.2841 112 51.843 112H72.157C82.716 112 87.9954 112 92.4154 109.636C92.784 109.439 93.1463 109.23 93.5018 109.01C97.765 106.374 100.415 101.808 105.715 92.6756L115.697 75.4756C121.037 66.2749 123.707 61.6746 123.866 56.6309C123.879 56.2104 123.879 55.7896 123.866 55.3691C123.707 50.3254 121.037 45.7251 115.697 36.5244L105.715 19.3244C100.415 10.192 97.765 5.6258 93.5018 2.98958C93.1463 2.76973 92.784 2.56108 92.4154 2.36394C87.9954 0 82.716 0 72.157 0L51.843 0C41.2841 0 36.0046 0 31.5846 2.36394C31.216 2.56108 30.8537 2.76973 30.4982 2.98958C26.235 5.6258 23.585 10.192 18.285 19.3244L8.30282 36.5244Z" fill="url(#paint0_linear)" fill-opacity="0.7"/>
<defs>
<linearGradient id="paint0_linear" x1="138" y1="129.231" x2="73.1195" y2="-13.3943" gradientUnits="userSpaceOnUse">
<stop stop-color="#00E6FF"/>
<stop offset="1" stop-color="#2094FF"/>
</linearGradient>
</defs>
</svg>
