<svg width="212" height="250" viewBox="0 0 212 250" fill="none" xmlns="http://www.w3.org/2000/svg">
<path d="M200.588 166.948C193.912 185.16 183.815 200.994 170.575 214.008C155.504 228.821 135.769 240.591 111.918 248.987C111.135 249.262 110.319 249.487 109.498 249.653C108.414 249.868 107.311 249.985 106.218 250H106.004C104.838 250 103.667 249.882 102.506 249.653C101.685 249.487 100.88 249.262 100.101 248.993C76.2216 240.61 56.4622 228.846 41.3759 214.033C28.1297 201.019 18.0349 185.194 11.3682 166.983C-0.754236 133.871 -0.0644475 97.3949 0.490794 68.0828L0.500269 67.6327C0.612076 65.2122 0.684086 62.6697 0.723882 59.8621C0.926649 46.0777 11.8155 34.6737 25.5127 33.905C54.0707 32.3009 76.1628 22.9263 95.0392 4.40787L95.204 4.25528C98.3384 1.36184 102.288 -0.0572321 106.218 0.00189595C110.008 0.0514871 113.783 1.46865 116.805 4.25528L116.966 4.40787C135.847 22.9263 157.939 32.3009 186.497 33.905C200.194 34.6737 211.083 46.0777 211.286 59.8621C211.325 62.6888 211.397 65.2275 211.509 67.6327L211.515 67.8234C212.068 97.1908 212.754 133.739 200.588 166.948Z" fill="url(#paint0_linear)"/>
<path d="M167.903 125C167.903 159.281 140.249 187.185 106.218 187.307H106C71.8687 187.307 44.0953 159.355 44.0953 125C44.0953 90.6467 71.8687 62.6945 106 62.6945H106.218C140.249 62.8166 167.903 90.7211 167.903 125Z" fill="url(#paint1_linear)"/>
<g filter="url(#filter0_d)">
<path d="M134.097 116.028L106.218 144.093L100.194 150.156C98.7705 151.588 96.9039 152.304 95.0392 152.304C93.1726 152.304 91.3079 151.588 89.8828 150.156L76.9303 137.114C74.084 134.249 74.084 129.608 76.9303 126.741C79.7729 123.877 84.3891 123.877 87.2355 126.741L95.0392 134.596L123.792 105.656C126.639 102.789 131.255 102.789 134.097 105.656C136.944 108.521 136.944 113.167 134.097 116.028Z" fill="url(#paint2_linear)"/>
</g>
<defs>
<filter id="filter0_d" x="71.7956" y="99.5056" width="69.4366" height="56.7981" filterUnits="userSpaceOnUse" color-interpolation-filters="sRGB">
<feFlood flood-opacity="0" result="BackgroundImageFix"/>
<feColorMatrix in="SourceAlpha" type="matrix" values="0 0 0 0 0 0 0 0 0 0 0 0 0 0 0 0 0 0 127 0"/>
<feOffset dx="1"/>
<feGaussianBlur stdDeviation="2"/>
<feColorMatrix type="matrix" values="0 0 0 0 0 0 0 0 0 0 0 0 0 0 0 0 0 0 0.219761 0"/>
<feBlend mode="normal" in2="BackgroundImageFix" result="effect1_dropShadow"/>
<feBlend mode="normal" in="SourceGraphic" in2="effect1_dropShadow" result="shape"/>
</filter>
<linearGradient id="paint0_linear" x1="-43.9688" y1="196.621" x2="153.202" y2="277.001" gradientUnits="userSpaceOnUse">
<stop stop-color="#50E3AA"/>
<stop offset="1" stop-color="#39BE8A"/>
</linearGradient>
<linearGradient id="paint1_linear" x1="18.2172" y1="160.701" x2="127.713" y2="213.118" gradientUnits="userSpaceOnUse">
<stop stop-color="#39BE8A"/>
<stop offset="1" stop-color="#50E3AA"/>
</linearGradient>
<linearGradient id="paint2_linear" x1="61.9542" y1="141.885" x2="110.775" y2="171.501" gradientUnits="userSpaceOnUse">
<stop stop-color="#50E3AA"/>
<stop offset="1" stop-color="#40CA94"/>
</linearGradient>
</defs>
</svg>
